<svg width="60" height="45" viewBox="0 0 60 45" fill="none" xmlns="http://www.w3.org/2000/svg">
    <g clip-path="url(#clip0)">
        <path d="M25.9456 27.2888C25.9456 32.2066 21.9528 36.1924 17.0265 36.1924C12.1002 36.1924 8.10746 32.2066 8.10746 27.2888H0C0 36.6612 7.63781 44.2858 17.0265 44.2858C20.9156 44.2858 24.504 42.977 27.373 40.7773L34.053 27.2874L25.9456 27.2888Z"
              fill="url(#paint0_linear)"/>
        <path d="M42.9732 10.2917C39.7056 10.2917 36.6493 11.2166 34.0542 12.8157V8.09341C34.0542 3.6232 30.4233 0 25.9453 0V27.2887H34.0528C34.0528 22.3709 38.0455 18.3851 42.9718 18.3851C47.8982 18.3851 51.8909 22.3709 51.8909 27.2887H59.9983C59.9998 17.9163 52.3619 10.2917 42.9732 10.2917Z"
              fill="url(#paint1_linear)"/>
        <path d="M60.0001 44.2858C55.5221 44.2858 51.8926 40.6626 51.8926 36.1924V27.2888H60.0001V44.2858Z"
              fill="white"/>
        <path d="M17.0265 10.2917C7.63781 10.2917 0 17.9163 0 27.2888H8.10888C8.10888 22.371 12.1016 18.3852 17.0279 18.3852C21.9543 18.3852 25.947 22.371 25.947 27.2888V36.1924C25.947 40.6626 29.5765 44.2858 34.0544 44.2858V27.2888C34.0544 17.9163 26.4166 10.2917 17.0265 10.2917Z"
              fill="white"/>
    </g>
    <defs>
        <linearGradient id="paint0_linear" x1="19.117" y1="35.7876" x2="26.7344" y2="35.7876"
                        gradientUnits="userSpaceOnUse">
            <stop stop-color="white"/>
            <stop offset="1" stop-color="#E8EBF2"/>
        </linearGradient>
        <linearGradient id="paint1_linear" x1="40.8803" y1="16.0598" x2="35.9166" y2="21.8091"
                        gradientUnits="userSpaceOnUse">
            <stop stop-color="white"/>
            <stop offset="1" stop-color="#E8EBF2"/>
        </linearGradient>
        <clipPath id="clip0">
            <rect width="60" height="44.2857" fill="white"/>
        </clipPath>
    </defs>
</svg>
