<svg width="22" height="22" viewBox="0 0 22 22" fill="none" xmlns="http://www.w3.org/2000/svg">
    <path d="M13 12.9633H15V6.96331H9V8.96331H11.5858L6.25623 14.2929L7.67044 15.7071L13 10.3775V12.9633Z"
          fill="white"/>
    <path fill-rule="evenodd" clip-rule="evenodd"
          d="M22 18C22 20.2091 20.2091 22 18 22H4C1.79086 22 0 20.2091 0 18V4C0 1.79086 1.79086 0 4 0H18C20.2091 0 22 1.79086 22 4V18ZM18 20H4C2.89543 20 2 19.1046 2 18V4C2 2.89543 2.89543 2 4 2H18C19.1046 2 20 2.89543 20 4V18C20 19.1046 19.1046 20 18 20Z"
          fill="white"/>
</svg>
