<svg width="177" height="54" viewBox="0 0 177 54" fill="none" xmlns="http://www.w3.org/2000/svg">
    <path d="M29.0185 30.5739C29.0185 36.081 24.5514 40.5481 19.0443 40.5481C13.5372 40.5481 9.06999 36.081 9.06999 30.5739H0C0 41.0726 8.54098 49.6181 19.0443 49.6181C23.3939 49.6181 27.4089 48.1532 30.6146 45.689L38.084 30.5739H29.0185Z" fill="url(#paint0_linear)"/>
    <path d="M48.0628 11.5296C44.4095 11.5296 40.9913 12.5651 38.0885 14.3601V9.06999C38.0885 4.06024 34.0283 0 29.0185 0V30.5739H38.0885C38.0885 25.0668 42.5557 20.5996 48.0628 20.5996C53.5699 20.5996 58.037 25.0668 58.037 30.5739H67.107C67.107 20.0751 58.5661 11.5296 48.0628 11.5296Z" fill="url(#paint1_linear)"/>
    <path d="M67.107 49.6181C62.0973 49.6181 58.0371 45.5579 58.0371 40.5481V30.5739H67.107V49.6181Z" fill="white"/>
    <path d="M19.0443 11.5297C8.54098 11.5297 0 20.0752 0 30.5739H9.06999C9.06999 25.0668 13.5372 20.5997 19.0443 20.5997C24.5514 20.5997 29.0185 25.0668 29.0185 30.5739V40.5482C29.0185 45.5579 33.0788 49.6182 38.0885 49.6182V30.5739C38.0885 20.0752 29.543 11.5297 19.0443 11.5297Z" fill="white"/>
    <path d="M85.3104 28.901C85.2199 28.7337 85.1385 28.476 85.0707 28.1278C85.0029 27.7842 84.9577 27.418 84.9441 27.0337C84.4694 27.5536 83.8138 28.0465 82.9773 28.5076C82.1408 28.9688 81.2365 29.222 80.269 29.2672C79.0572 29.3441 78.0173 29.1316 77.1492 28.6342C76.2811 28.1369 75.7927 27.3773 75.6888 26.3645C75.5802 25.3381 75.8018 24.5243 76.3579 23.9229C76.9095 23.3216 77.6104 22.9011 78.4559 22.6569C79.1296 22.4399 79.8846 22.3088 80.7121 22.2545C81.5395 22.2002 82.3172 22.1143 83.0361 21.9877C83.4204 21.9109 83.8318 21.7798 84.2795 21.5944C84.7226 21.409 84.9486 21.0563 84.9486 20.5364C84.9486 19.9079 84.6638 19.3291 84.0986 18.8092C83.5289 18.2892 82.6563 18.027 81.4717 18.027C80.3504 18.027 79.4732 18.2621 78.8357 18.7278C78.1982 19.198 77.8952 19.8084 77.9269 20.559H76.4077C76.2992 19.3924 76.7558 18.452 77.7777 17.7376C78.7995 17.0232 80.0293 16.666 81.4762 16.666C82.8597 16.666 84.0579 17.0096 85.0707 17.6924C86.0835 18.3751 86.5899 19.3382 86.5899 20.5816V26.9839C86.5899 27.5084 86.6397 27.947 86.7391 28.3087C86.8386 28.6704 86.8974 28.8648 86.9109 28.8965H85.3104V28.901ZM84.9441 22.4534C84.7587 22.5891 84.5417 22.7157 84.2885 22.8197C84.0353 22.9282 83.7866 23.0051 83.538 23.0503C83.0451 23.1588 82.3624 23.2583 81.4897 23.3487C80.6126 23.4391 79.9932 23.5341 79.6269 23.6245C78.8266 23.8415 78.2298 24.1535 77.8319 24.5695C77.434 24.9854 77.2486 25.4918 77.2803 26.0887C77.3255 26.794 77.6601 27.3004 78.2841 27.6079C78.908 27.9153 79.6405 28.0374 80.4815 27.9741C81.6028 27.8837 82.6292 27.4948 83.556 26.8121C84.4829 26.1294 84.9486 25.4285 84.9486 24.7051V22.4534H84.9441Z" fill="white"/>
    <path d="M101.434 28.8557H99.7292L96.9214 19.7585H96.7812L93.996 28.8557H92.2915L88.6743 17.1316H90.2387L93.0465 26.5271H93.1867L95.9945 17.1316H97.7217L100.529 26.5271H100.67L103.5 17.1316H105.019L101.434 28.8557Z" fill="white"/>
    <path d="M108.32 23.3937C108.352 24.7456 108.79 25.8398 109.631 26.6763C110.477 27.5127 111.39 27.9332 112.371 27.9332C113.416 27.9332 114.22 27.7072 114.79 27.255C115.36 26.8029 115.735 26.301 115.92 25.7449H117.67C117.376 26.5452 116.825 27.3319 116.011 28.1186C115.197 28.9008 113.99 29.2942 112.394 29.2942C110.689 29.2942 109.306 28.6883 108.248 27.4766C107.19 26.2648 106.661 24.7728 106.661 23.0094C106.661 21.228 107.181 19.7359 108.225 18.5287C109.269 17.3214 110.653 16.7201 112.371 16.7201C113.954 16.7201 115.319 17.2808 116.472 18.4021C117.625 19.5234 118.177 21.1827 118.131 23.3756L108.32 23.3937ZM116.427 22.1051C116.382 20.8934 115.97 19.9167 115.197 19.1797C114.424 18.4428 113.483 18.0765 112.376 18.0765C111.3 18.0765 110.382 18.4428 109.622 19.1707C108.862 19.8987 108.442 20.8798 108.365 22.1051H116.427Z" fill="white"/>
    <path d="M129.494 23.8912C130.009 24.3298 130.226 24.9538 130.149 25.7676C130.059 26.7352 129.58 27.5672 128.721 28.268C127.861 28.9643 126.727 29.3215 125.311 29.3396C123.268 29.3712 121.871 28.8874 121.12 27.8882C120.369 26.8889 119.99 25.9982 119.99 25.216H121.554C121.568 26.0751 121.943 26.7443 122.671 27.219C123.399 27.6938 124.258 27.9334 125.239 27.9334C126.053 27.9334 126.781 27.7706 127.427 27.4406C128.074 27.1105 128.449 26.6131 128.558 25.953C128.635 25.415 128.485 24.9899 128.11 24.6734C127.735 24.3569 127.278 24.0857 126.74 23.8551C126.157 23.6109 125.515 23.421 124.819 23.2899C124.122 23.1588 123.516 23.0096 123.01 22.8423C122.35 22.6117 121.762 22.268 121.247 21.8069C120.731 21.3457 120.492 20.7262 120.523 19.9395C120.568 19.094 120.98 18.3254 121.758 17.6245C122.531 16.9282 123.657 16.5756 125.131 16.5756C126.745 16.5756 127.934 17.0141 128.698 17.8868C129.467 18.7639 129.828 19.5823 129.779 20.351H128.237C128.237 19.8129 127.988 19.2839 127.486 18.7639C126.989 18.244 126.175 17.9817 125.058 17.9817C124.122 17.9817 123.394 18.1581 122.883 18.5107C122.372 18.8634 122.097 19.3336 122.065 19.9169C122.033 20.5318 122.278 20.9704 122.788 21.2417C123.304 21.5084 123.774 21.7119 124.204 21.8521C124.742 22.0058 125.357 22.146 126.048 22.268C126.74 22.3901 127.346 22.5845 127.866 22.8423C128.44 23.1045 128.978 23.4527 129.494 23.8912Z" fill="white"/>
    <path d="M142.158 18.5151C143.194 19.7133 143.714 21.2099 143.714 23.0049C143.714 24.7728 143.194 26.2649 142.158 27.4856C141.123 28.7064 139.712 29.3168 137.931 29.3168C136.163 29.3168 134.766 28.7064 133.739 27.4856C132.708 26.2649 132.198 24.7728 132.198 23.0049C132.198 21.2099 132.713 19.7133 133.739 18.5151C134.766 17.3169 136.167 16.7201 137.931 16.7201C139.717 16.7156 141.123 17.3169 142.158 18.5151ZM140.906 26.5181C141.656 25.5731 142.036 24.402 142.036 23.0049C142.036 21.5942 141.661 20.4232 140.906 19.4918C140.155 18.5649 139.165 18.0992 137.935 18.0992C136.724 18.0992 135.742 18.5649 135.001 19.4918C134.255 20.4232 133.884 21.5897 133.884 23.0049C133.884 24.402 134.255 25.5731 135.001 26.5181C135.747 27.463 136.724 27.9333 137.935 27.9333C139.161 27.9333 140.151 27.4585 140.906 26.5181Z" fill="white"/>
    <path d="M160.529 28.8331V21.2778C160.529 20.3102 160.353 19.5371 160 18.9628C159.647 18.3886 159.019 18.1128 158.11 18.1445C157.219 18.158 156.496 18.4791 155.944 19.0985C155.392 19.7225 155.117 20.5227 155.117 21.5039V28.8286H153.575L153.552 21.2733C153.552 20.3057 153.371 19.5325 153.01 18.9583C152.648 18.3841 152.015 18.1083 151.111 18.1399C150.206 18.1535 149.478 18.4836 148.936 19.1211C148.389 19.7586 148.118 20.5544 148.118 21.5039V28.8286H146.553V17.1543H148.118V18.583C148.515 18.0902 149.017 17.6471 149.628 17.2492C150.234 16.8513 150.984 16.675 151.875 16.7202C152.535 16.7519 153.109 16.9644 153.602 17.3532C154.095 17.7466 154.461 18.2304 154.705 18.8136C154.936 18.4745 155.383 18.0224 156.053 17.4527C156.722 16.883 157.653 16.6388 158.851 16.7157C160.004 16.779 160.832 17.2266 161.338 18.0631C161.845 18.8995 162.098 19.8084 162.098 20.794V28.8331H160.529Z" fill="white"/>
    <path d="M166.375 23.3937C166.407 24.7456 166.845 25.8398 167.686 26.6763C168.532 27.5127 169.445 27.9332 170.426 27.9332C171.471 27.9332 172.276 27.7072 172.845 27.255C173.415 26.8029 173.79 26.301 173.976 25.7449H175.725C175.431 26.5452 174.88 27.3319 174.066 28.1186C173.252 28.9008 172.045 29.2942 170.449 29.2942C168.744 29.2942 167.361 28.6883 166.303 27.4766C165.245 26.2648 164.716 24.7728 164.716 23.0094C164.716 21.228 165.236 19.7359 166.28 18.5287C167.325 17.3214 168.708 16.7201 170.426 16.7201C172.009 16.7201 173.374 17.2808 174.527 18.4021C175.68 19.5234 176.232 21.1827 176.187 23.3756L166.375 23.3937ZM174.482 22.1051C174.437 20.8934 174.025 19.9167 173.252 19.1797C172.479 18.4428 171.539 18.0765 170.431 18.0765C169.355 18.0765 168.437 18.4428 167.677 19.1707C166.918 19.8987 166.497 20.8798 166.42 22.1051H174.482Z" fill="white"/>
    <path d="M85.2199 49.6407V42.2707C85.2199 41.2127 84.9396 40.4034 84.3789 39.8518C83.8183 39.3002 83.0541 39.0244 82.0866 39.0244C80.9969 39.0244 80.0881 39.3861 79.3556 40.105C78.6277 40.8284 78.2614 41.588 78.2614 42.3838V49.6361H76.697V33.4766H78.2614V39.5081C78.7678 38.9249 79.3918 38.4275 80.1378 38.0116C80.8839 37.5956 81.8062 37.4283 82.914 37.5052C84.1438 37.5685 85.0978 38.0296 85.7806 38.8887C86.4633 39.7478 86.8069 40.6928 86.8069 41.7191V49.6407H85.2199Z" fill="white"/>
    <path d="M99.3268 39.3003C100.362 40.4984 100.882 41.995 100.882 43.79C100.882 45.5579 100.362 47.05 99.3268 48.2708C98.2914 49.4916 96.8807 50.1019 95.0992 50.1019C93.3314 50.1019 91.9342 49.4916 90.9079 48.2708C89.877 47.05 89.3661 45.5579 89.3661 43.79C89.3661 41.995 89.8815 40.4984 90.9079 39.3003C91.9342 38.1021 93.3314 37.5052 95.0992 37.5052C96.8807 37.5052 98.2868 38.1021 99.3268 39.3003ZM98.0698 47.3032C98.8204 46.3582 99.2002 45.1872 99.2002 43.79C99.2002 42.3793 98.8249 41.2083 98.0698 40.2769C97.3193 39.35 96.3291 38.8843 95.0992 38.8843C93.8875 38.8843 92.9063 39.35 92.1648 40.2769C91.4188 41.2083 91.048 42.3748 91.048 43.79C91.048 45.1872 91.4188 46.3582 92.1648 47.3032C92.9109 48.2482 93.8875 48.7184 95.0992 48.7184C96.3291 48.7229 97.3193 48.2482 98.0698 47.3032Z" fill="white"/>
    <path d="M105.557 39.142V46.7425C105.557 47.0499 105.562 47.3077 105.571 47.5156C105.58 47.7236 105.684 47.909 105.883 48.0808C106.05 48.2345 106.267 48.325 106.529 48.3566C106.792 48.3883 107.004 48.4018 107.176 48.4018V49.6678H105.933C105.593 49.6678 105.295 49.5774 105.033 49.4056C104.771 49.2293 104.558 49.0258 104.386 48.7952C104.219 48.5646 104.11 48.3159 104.065 48.0446C104.02 47.7779 103.997 47.4026 103.997 46.9279V39.142H102.523V37.876H103.997V34.2362H105.562V37.876H107.266V39.142H105.557Z" fill="white"/>
    <path d="M119.28 49.6407L113.94 43.1931C113.786 43.3152 113.447 43.6046 112.914 44.0567C112.385 44.5089 112.018 44.8208 111.819 44.9881V49.6181H110.255V33.4766H111.819V43.2157L117.991 37.7584H119.994L115.043 42.2707L121.17 49.6407H119.28Z" fill="white"/>
    <path d="M123.055 44.1834C123.087 45.5353 123.525 46.6295 124.366 47.466C125.212 48.3024 126.125 48.7229 127.106 48.7229C128.151 48.7229 128.956 48.4968 129.525 48.0447C130.095 47.5926 130.47 47.0907 130.656 46.5345H132.406C132.112 47.3348 131.56 48.1216 130.746 48.9083C129.932 49.6905 128.725 50.0839 127.129 50.0839C125.424 50.0839 124.041 49.478 122.983 48.2662C121.925 47.0545 121.396 45.5624 121.396 43.7991C121.396 42.0176 121.916 40.5256 122.96 39.3183C124.005 38.1111 125.388 37.5098 127.106 37.5098C128.689 37.5098 130.054 38.0704 131.207 39.1917C132.36 40.3131 132.912 41.9724 132.867 44.1653L123.055 44.1834ZM131.162 42.8948C131.117 41.683 130.705 40.7064 129.932 39.9694C129.159 39.2324 128.219 38.8662 127.111 38.8662C126.035 38.8662 125.117 39.2324 124.357 39.9604C123.598 40.6883 123.177 41.6695 123.1 42.8948H131.162Z" fill="white"/>
    <path d="M139.662 51.1148C139.522 51.4855 139.35 51.8156 139.142 52.1185C138.934 52.4169 138.686 52.6521 138.392 52.8193C138.116 52.9731 137.845 53.0726 137.587 53.1178C137.325 53.163 137.017 53.1856 136.665 53.1856H136.041V51.8744L136.891 51.897C137.243 51.9105 137.528 51.8111 137.741 51.5986C137.953 51.3815 138.116 51.1283 138.225 50.839L138.894 49.2972L134.056 37.9438H135.67L139.721 47.3394L143.682 37.9438H145.269L139.662 51.1148Z" fill="white"/>
    <path d="M155.818 44.6808C156.333 45.1194 156.55 45.7433 156.473 46.5572C156.383 47.5248 155.903 48.3567 155.044 49.0575C154.185 49.7538 153.05 50.111 151.635 50.1291C149.591 50.1608 148.194 49.677 147.444 48.6777C146.693 47.6785 146.313 46.7878 146.313 46.0056H147.878C147.891 46.8646 148.267 47.5338 148.995 48.0086C149.723 48.4833 150.582 48.7229 151.563 48.7229C152.377 48.7229 153.105 48.5602 153.751 48.2301C154.398 47.9 154.773 47.4027 154.882 46.7426C154.958 46.2045 154.809 45.7795 154.434 45.463C154.059 45.1465 153.602 44.8752 153.064 44.6446C152.481 44.4005 151.839 44.2106 151.142 44.0794C150.446 43.9483 149.84 43.7991 149.334 43.6318C148.674 43.4012 148.086 43.0576 147.57 42.5964C147.055 42.1352 146.815 41.5158 146.847 40.7291C146.892 39.8835 147.304 39.1149 148.081 38.4141C148.855 37.7178 149.98 37.3651 151.454 37.3651C153.068 37.3651 154.258 37.8037 155.022 38.6763C155.79 39.5535 156.152 40.3719 156.102 41.1405H154.561C154.561 40.6025 154.312 40.0734 153.81 39.5535C153.313 39.0335 152.499 38.7713 151.382 38.7713C150.446 38.7713 149.718 38.9476 149.207 39.3003C148.696 39.653 148.42 40.1232 148.389 40.7064C148.357 41.3214 148.601 41.7599 149.112 42.0312C149.628 42.298 150.098 42.5015 150.527 42.6416C151.065 42.7953 151.68 42.9355 152.372 43.0576C153.064 43.1797 153.67 43.3741 154.19 43.6318C154.759 43.8941 155.302 44.2422 155.818 44.6808Z" fill="white"/>
    <defs>
        <linearGradient id="paint0_linear" x1="21.3816" y1="40.0963" x2="29.9013" y2="40.0963" gradientUnits="userSpaceOnUse">
            <stop stop-color="white"/>
            <stop offset="1" stop-color="#939598"/>
        </linearGradient>
        <linearGradient id="paint1_linear" x1="45.7232" y1="17.9934" x2="40.1604" y2="24.4253" gradientUnits="userSpaceOnUse">
            <stop stop-color="white"/>
            <stop offset="1" stop-color="#939598"/>
        </linearGradient>
    </defs>
</svg>
