<svg width="260" height="192" viewBox="0 0 260 192" fill="none" xmlns="http://www.w3.org/2000/svg">
    <g clip-path="url(#clip0)">
        <path d="M112.431 118.251C112.431 139.562 95.129 156.833 73.7815 156.833C52.4341 156.833 35.1323 139.562 35.1323 118.251H0C0 158.865 33.0972 191.905 73.7815 191.905C90.6345 191.905 106.184 186.233 118.616 176.701L147.563 118.245L112.431 118.251Z" fill="url(#paint0_linear)"/>
        <path d="M186.218 44.5973C172.059 44.5973 158.815 48.6053 147.569 55.5349V35.0714C147.569 15.7005 131.835 0 112.431 0V118.251H147.563C147.563 96.9406 164.865 79.6688 186.212 79.6688C207.56 79.6688 224.862 96.9406 224.862 118.251H259.994C260 77.6372 226.903 44.5973 186.218 44.5973Z" fill="url(#paint1_linear)"/>
        <path d="M260 191.905C240.595 191.905 224.868 176.204 224.868 156.833V118.251H260V191.905Z" fill="white"/>
        <path d="M73.7815 44.5974C33.0972 44.5974 0 77.6372 0 118.251H35.1385C35.1385 96.9406 52.4402 79.6688 73.7877 79.6688C95.1351 79.6688 112.437 96.9406 112.437 118.251V156.833C112.437 176.204 128.165 191.905 147.569 191.905V118.251C147.569 77.6372 114.472 44.5974 73.7815 44.5974Z" fill="white"/>
    </g>
    <defs>
        <linearGradient id="paint0_linear" x1="82.8403" y1="155.079" x2="115.849" y2="155.079" gradientUnits="userSpaceOnUse">
            <stop stop-color="white"/>
            <stop offset="1" stop-color="#E8EBF2"/>
        </linearGradient>
        <linearGradient id="paint1_linear" x1="177.149" y1="69.5926" x2="155.64" y2="94.5061" gradientUnits="userSpaceOnUse">
            <stop stop-color="white"/>
            <stop offset="1" stop-color="#E8EBF2"/>
        </linearGradient>
        <clipPath id="clip0">
            <rect width="260" height="191.905" fill="white"/>
        </clipPath>
    </defs>
</svg>
