<svg width="1920" height="670" viewBox="0 0 1920 670" fill="none" xmlns="http://www.w3.org/2000/svg">
    <mask id="mask0" mask-type="alpha" maskUnits="userSpaceOnUse" x="0" y="0" width="1920" height="670">
        <path d="M0 0H1920V670H0V0Z" fill="#1E1F21"/>
    </mask>

    <defs>
        <linearGradient id="logo-gradient" x1="0%" y1="0%" x2="0%" y2="100%" >

            <stop offset="0%" stop-color="#FEFF3E">
                <animate attributeName="stop-color" values="#FEFF3E; #CD00FF; #FEFF3E" dur="4s" repeatCount="indefinite"></animate>
            </stop>

            <stop offset="100%" stop-color="#CD00FF">
                <animate attributeName="stop-color" values="#CD00FF; #FEFF3E; #CD00FF" dur="4s" repeatCount="indefinite"></animate>
            </stop>

        </linearGradient>

    </defs>
    <g>
        <path d="M1765.94 -1467C1765.94 -1467 1580.77 -763.2 599.403 -422.96C-381.967 -82.72 -513.217 647.03 -475.377 820.07" stroke="url('#logo-gradient')"  stroke-miterlimit="10"/>
        <path d="M1769.21 -1444.49C1768.91 -1444.55 1707.06 -1211.11 1466.85 -948.69C1394.84 -869.97 1306.88 -788.67 1199.62 -710.33C1046.38 -598.19 853.563 -492.57 612.463 -409.1C377.353 -327.72 191.353 -223.94 44.983 -110.64C-413.967 244.88 -482.287 692.51 -454.187 823.08" stroke="url('#logo-gradient')" stroke-miterlimit="10"/>
        <path d="M1772.48 -1421.98C1771.88 -1422.1 1710.2 -1190.96 1472.3 -930.69C1400.96 -852.54 1313.93 -771.83 1207.71 -694.06C1055.92 -582.5 864.563 -477.87 625.533 -395.23C392.383 -314.67 207.843 -212.01 62.533 -99.7299C-392.427 252.41 -460.497 696.18 -433.007 826.09" stroke="url('#logo-gradient')" stroke-miterlimit="10"/>
        <path d="M1775.76 -1399.47C1774.86 -1399.65 1713.36 -1170.81 1477.75 -912.7C1407.09 -835.12 1320.98 -755 1215.8 -677.79C1065.46 -566.8 875.563 -463.17 638.603 -381.37C407.403 -301.62 224.323 -200.1 80.093 -88.8301C-370.877 259.94 -438.697 699.86 -411.817 829.11" stroke="url('#logo-gradient')" stroke-miterlimit="10"/>
        <path d="M1779.03 -1376.96C1777.83 -1377.19 1716.5 -1150.67 1483.19 -894.71C1413.2 -817.7 1328.02 -738.17 1223.88 -661.53C1074.99 -551.11 886.563 -448.48 651.663 -367.51C422.423 -288.57 240.803 -188.18 97.643 -77.9401C-349.327 267.45 -416.917 703.52 -390.647 832.11" stroke="url('#logo-gradient')" stroke-miterlimit="10"/>
        <path d="M1782.3 -1354.45C1780.8 -1354.74 1719.64 -1130.52 1488.63 -876.72C1419.31 -800.28 1334.88 -721.57 1231.96 -645.26C1084.27 -535.75 897.553 -433.78 664.723 -353.65C437.433 -275.53 257.273 -176.26 115.193 -67.04C-327.787 274.97 -395.127 707.19 -369.467 835.12" stroke="url('#logo-gradient')" stroke-miterlimit="10"/>
        <path d="M1785.58 -1331.94C1783.78 -1332.29 1722.8 -1110.37 1494.09 -858.73C1425.44 -782.86 1341.91 -704.79 1240.06 -628.99C1093.77 -520.12 908.573 -419.08 677.803 -339.78C452.473 -262.47 273.773 -164.34 132.753 -56.13C-306.237 282.5 -373.327 710.88 -348.277 838.15" stroke="url('#logo-gradient')" stroke-miterlimit="10"/>
        <path d="M1788.85 -1309.42C1786.75 -1309.83 1725.94 -1090.22 1499.53 -840.72C1431.56 -765.42 1348.91 -687.98 1248.14 -612.71C1103.25 -504.48 919.563 -404.37 690.863 -325.91C467.493 -249.41 290.243 -152.41 150.303 -45.22C-284.687 290.04 -351.537 714.56 -327.097 841.17" stroke="url('#logo-gradient')" stroke-miterlimit="10"/>
        <path d="M1792.13 -1286.91C1789.73 -1287.38 1729.1 -1070.07 1504.98 -822.73C1437.68 -748 1355.93 -671.2 1256.23 -596.44C1112.74 -488.85 930.563 -389.67 703.933 -312.04C482.513 -236.35 306.723 -140.49 167.863 -34.3101C-263.137 297.57 -329.747 718.24 -305.907 844.19" stroke="url('#logo-gradient')" stroke-miterlimit="10"/>
        <path d="M1795.4 -1264.4C1792.7 -1264.93 1732.24 -1049.92 1510.42 -804.74C1443.79 -730.58 1362.94 -654.41 1264.32 -580.18C1122.23 -473.23 941.573 -374.99 717.003 -298.19C497.543 -223.32 323.213 -128.58 185.423 -23.42C-241.587 305.08 -307.947 721.9 -284.717 847.19" stroke="url('#logo-gradient')" stroke-miterlimit="10"/>
        <path d="M1798.67 -1241.89C1795.67 -1242.48 1735.38 -1029.78 1515.87 -786.75C1449.91 -713.16 1369.95 -637.62 1272.41 -563.91C1131.72 -457.6 952.573 -360.29 730.063 -284.32C512.553 -210.26 339.463 -116.95 202.963 -12.51C-220.757 311.7 -286.167 725.58 -263.547 850.21" stroke="url('#logo-gradient')" stroke-miterlimit="10"/>
        <path d="M1801.95 -1219.38C1798.66 -1220.02 1738.02 -1010.09 1521.32 -768.76C1455.88 -695.88 1376.97 -620.84 1280.5 -547.65C1141.21 -441.97 963.573 -345.6 743.133 -270.47C527.583 -197.22 355.923 -105.07 220.523 -1.62C-199.267 319.12 -264.367 729.24 -242.357 853.21" stroke="url('#logo-gradient')" stroke-miterlimit="10"/>
        <path d="M1805.22 -1196.87C1801.63 -1197.57 1741.12 -989.99 1526.76 -750.76C1461.98 -678.47 1383.97 -604.04 1288.58 -531.37C1150.69 -426.33 974.573 -330.89 756.193 -256.59C542.603 -184.16 372.373 -93.1701 238.073 9.29993C-177.787 326.58 -242.587 732.94 -221.187 856.24" stroke="url('#logo-gradient')" stroke-miterlimit="10"/>
        <path d="M1808.49 -1174.36C1804.6 -1175.12 1744.22 -969.88 1532.2 -732.77C1468.08 -661.06 1390.98 -587.25 1296.66 -515.11C1160.16 -410.71 985.563 -316.2 769.253 -242.74C557.613 -171.12 388.833 -81.2901 255.623 20.1899C-156.317 334 -220.797 736.6 -200.007 859.24" stroke="url('#logo-gradient')" stroke-miterlimit="10"/>
        <path d="M1811.77 -1151.85C1807.58 -1152.67 1747.33 -949.78 1537.66 -714.78C1474.2 -643.65 1398.01 -570.46 1304.76 -498.84C1169.66 -395.07 996.573 -301.5 782.333 -228.87C572.653 -158.06 405.303 -69.4 273.183 31.1C-134.827 341.45 -198.997 740.28 -178.817 862.26" stroke="url('#logo-gradient')" stroke-miterlimit="10"/>
        <path d="M1815.04 -1129.34C1810.55 -1130.22 1750.42 -929.67 1543.1 -696.79C1480.3 -626.24 1405.01 -553.68 1312.84 -482.57C1179.14 -379.44 1007.57 -286.8 795.393 -215.01C587.663 -145.01 421.753 -57.51 290.733 42C-113.347 348.88 -177.207 743.95 -157.637 865.27" stroke="url('#logo-gradient')" stroke-miterlimit="10"/>
        <path d="M1818.32 -1106.82C1813.53 -1107.76 1753.53 -909.55 1548.55 -678.79C1486.4 -608.83 1412.03 -536.88 1320.93 -466.3C1188.63 -363.8 1018.57 -272.1 808.463 -201.14C602.693 -131.96 438.213 -45.61 308.293 52.91C-91.867 356.33 -155.417 747.63 -136.447 868.29" stroke="url('#logo-gradient')" stroke-miterlimit="10"/>
        <path d="M1821.59 -1084.31C1816.5 -1085.31 1756.63 -889.44 1554 -660.79C1492.51 -591.41 1419.04 -520.08 1329.02 -450.02C1198.12 -348.16 1029.57 -257.39 821.533 -187.27C617.713 -118.9 454.683 -33.7201 325.843 63.8099C-70.387 363.76 -133.627 751.31 -115.267 871.3" stroke="url('#logo-gradient')" stroke-miterlimit="10"/>
        <path d="M1824.86 -1061.8C1819.47 -1062.85 1759.73 -869.34 1559.44 -642.8C1498.61 -574 1426.05 -503.29 1337.1 -433.76C1207.6 -332.53 1040.57 -242.71 834.593 -173.41C632.733 -105.85 471.133 -21.8299 343.393 74.7101C-48.907 371.2 -111.837 754.98 -94.087 874.31" stroke="url('#logo-gradient')" stroke-miterlimit="10"/>
        <path d="M1828.14 -1039.29C1822.45 -1040.4 1762.84 -849.23 1564.89 -624.81C1504.72 -556.59 1433.07 -486.5 1345.19 -417.49C1217.09 -316.89 1051.57 -228.01 847.663 -159.55C647.763 -92.8101 487.603 -9.94002 360.953 85.61C-27.417 378.64 -90.037 758.65 -72.897 877.33" stroke="url('#logo-gradient')" stroke-miterlimit="10"/>
        <path d="M1831.41 -1016.78C1825.42 -1017.95 1765.94 -829.12 1570.33 -606.82C1510.82 -539.19 1440.07 -469.71 1353.27 -401.23C1226.56 -301.27 1062.57 -213.32 860.723 -145.69C662.773 -79.7601 504.053 1.94001 378.503 96.51C-5.93701 386.07 -68.257 762.32 -51.727 880.34" stroke="url('#logo-gradient')" stroke-miterlimit="10"/>
        <path d="M1834.68 -994.27C1828.39 -995.5 1769.04 -809.01 1575.78 -588.83C1516.93 -521.78 1447.09 -452.92 1361.36 -384.96C1236.05 -285.63 1073.57 -198.62 873.793 -131.83C677.803 -66.71 520.513 13.83 396.053 107.41C15.5429 393.51 -46.467 765.99 -30.547 883.35" stroke="url('#logo-gradient')" stroke-miterlimit="10"/>
        <path d="M1837.96 -971.76C1831.37 -973.05 1772.15 -788.9 1581.23 -570.83C1523.04 -504.36 1454.1 -436.12 1369.45 -368.69C1245.54 -269.99 1084.57 -183.92 886.863 -117.96C692.823 -53.65 536.983 25.7299 413.613 118.32C37.033 400.96 -24.667 769.68 -9.35699 886.37" stroke="url('#logo-gradient')" stroke-miterlimit="10"/>
        <path d="M1841.23 -949.25C1834.34 -950.6 1775.25 -768.79 1586.67 -552.84C1529.13 -486.95 1461.11 -419.32 1377.53 -352.42C1255.02 -254.35 1095.57 -169.22 899.923 -104.1C707.843 -40.61 553.433 37.62 431.163 129.22C58.5229 408.4 -2.88699 773.35 11.823 889.38" stroke="url('#logo-gradient')" stroke-miterlimit="10"/>
        <path d="M1844.51 -926.73C1837.32 -928.14 1778.36 -748.67 1592.12 -534.84C1535.24 -469.53 1468.13 -402.52 1385.62 -336.14C1264.5 -238.7 1106.57 -154.51 912.993 -90.22C722.873 -27.54 569.903 49.52 448.723 140.14C80.013 415.86 18.913 777.04 33.013 892.41" stroke="url('#logo-gradient')" stroke-miterlimit="10"/>
        <path d="M1847.78 -904.22C1840.29 -905.69 1781.46 -728.56 1597.57 -516.85C1541.35 -452.13 1475.14 -385.73 1393.71 -319.88C1273.99 -223.07 1117.57 -139.82 926.063 -76.37C737.893 -14.5 586.363 61.4 466.273 151.03C101.493 423.29 40.703 780.7 54.193 895.41" stroke="url('#logo-gradient')" stroke-miterlimit="10"/>
        <path d="M1851.05 -881.71C1843.26 -883.23 1784.56 -708.45 1603.01 -498.86C1547.45 -434.72 1482.15 -368.93 1401.79 -303.61C1283.47 -207.43 1128.57 -125.12 939.123 -62.5C752.913 -1.45 602.813 73.2999 483.823 161.94C122.983 430.74 62.493 784.38 75.373 898.43" stroke="url('#logo-gradient')" stroke-miterlimit="10"/>
        <path d="M1854.33 -859.2C1846.24 -860.78 1787.67 -688.34 1608.46 -480.86C1553.56 -417.3 1489.17 -352.13 1409.88 -287.34C1292.96 -191.79 1139.57 -110.43 952.193 -48.64C767.933 11.6 619.283 85.1801 501.383 172.84C144.473 438.18 84.283 788.05 96.563 901.44" stroke="url('#logo-gradient')" stroke-miterlimit="10"/>
        <path d="M1857.6 -836.69C1849.21 -838.33 1790.77 -668.23 1613.9 -462.87C1559.66 -399.89 1496.17 -335.33 1417.96 -271.07C1302.43 -176.14 1150.56 -95.73 965.253 -34.77C782.953 24.66 635.733 97.08 518.933 183.75C165.963 445.63 106.073 791.74 117.733 904.46" stroke="url('#logo-gradient')" stroke-miterlimit="10"/>
        <path d="M1860.87 -814.18C1852.18 -815.88 1793.87 -648.11 1619.35 -444.88C1565.77 -382.48 1503.19 -318.54 1426.05 -254.81C1311.92 -160.51 1161.57 -81.0401 978.323 -20.9201C797.973 37.6899 652.203 108.96 536.483 194.64C187.443 453.07 127.863 795.4 138.913 907.46" stroke="url('#logo-gradient')" stroke-miterlimit="10"/>
        <path d="M1864.15 -791.67C1855.16 -793.43 1796.98 -628 1624.8 -426.89C1571.88 -365.07 1510.21 -301.74 1434.14 -238.54C1321.41 -144.87 1172.57 -66.34 991.393 -7.04999C813.003 50.75 668.663 120.86 554.043 205.54C208.943 460.51 149.663 799.07 160.103 910.47" stroke="url('#logo-gradient')" stroke-miterlimit="10"/>
        <path d="M1867.42 -769.16C1858.14 -770.98 1800.08 -607.89 1630.24 -408.9C1577.98 -347.66 1517.21 -284.95 1442.22 -222.28C1330.88 -129.23 1183.57 -51.6499 1004.45 6.80011C828.023 63.7901 685.123 132.73 571.593 216.43C230.433 467.95 171.443 802.73 181.283 913.47" stroke="url('#logo-gradient')" stroke-miterlimit="10"/>
        <path d="M1870.69 -746.64C1861.11 -748.52 1803.18 -587.76 1635.68 -390.89C1584.07 -330.24 1524.22 -268.13 1450.3 -205.99C1340.36 -113.57 1194.56 -36.93 1017.51 20.69C843.033 76.87 701.583 144.65 589.143 227.36C251.923 475.42 193.233 806.43 202.463 916.52" stroke="url('#logo-gradient')" stroke-miterlimit="10"/>
        <path d="M1873.97 -724.13C1864.09 -726.06 1806.3 -567.65 1641.14 -372.9C1590.19 -312.83 1531.25 -251.33 1458.41 -189.72C1349.86 -97.92 1205.58 -22.2299 1030.6 34.55C858.083 89.91 718.063 156.54 606.713 238.26C273.433 482.87 215.043 810.11 223.663 919.53" stroke="url('#logo-gradient')" stroke-miterlimit="10"/>
        <path d="M1877.24 -701.62C1867.06 -703.61 1809.4 -547.53 1646.58 -354.91C1596.29 -295.42 1538.26 -234.53 1466.49 -173.46C1359.34 -82.28 1216.58 -7.53997 1043.66 48.41C873.093 102.96 734.523 168.43 624.263 249.16C294.923 490.31 236.833 813.78 244.843 922.54" stroke="url('#logo-gradient')" stroke-miterlimit="10"/>
        <path d="M1880.52 -679.11C1870.04 -681.16 1812.51 -527.42 1652.03 -336.92C1602.4 -278.01 1545.27 -217.73 1474.58 -157.19C1368.83 -66.6301 1227.58 7.15002 1056.73 62.27C888.123 116.01 750.983 180.31 641.823 260.06C316.423 497.76 258.623 817.45 266.033 925.55" stroke="url('#logo-gradient')" stroke-miterlimit="10"/>
        <path d="M1883.79 -656.6C1873.01 -658.71 1815.61 -507.3 1657.47 -318.93C1608.5 -260.6 1552.28 -200.93 1482.66 -140.93C1378.3 -50.9901 1238.57 21.8399 1069.79 76.1299C903.133 129.05 767.443 192.2 659.363 270.96C337.903 505.21 280.403 821.12 287.193 928.56" stroke="url('#logo-gradient')" stroke-miterlimit="10"/>
        <path d="M1887.06 -634.09C1875.98 -636.26 1818.72 -487.18 1662.92 -300.93C1614.61 -243.18 1559.3 -184.12 1490.75 -124.65C1387.79 -35.33 1249.58 36.55 1082.86 90C918.163 142.11 783.913 204.1 676.923 281.87C359.413 512.67 302.203 824.8 308.383 931.58" stroke="url('#logo-gradient')" stroke-miterlimit="10"/>
        <path d="M1890.34 -611.58C1878.96 -613.81 1821.83 -467.07 1668.37 -282.94C1620.72 -225.77 1566.32 -167.32 1498.84 -108.39C1397.27 -19.69 1260.58 51.24 1095.93 103.86C933.193 155.16 800.373 215.99 694.483 292.77C380.913 520.12 324.003 828.47 329.573 934.59" stroke="url('#logo-gradient')" stroke-miterlimit="10"/>
        <path d="M1893.61 -589.07C1881.93 -591.36 1824.94 -446.95 1673.81 -264.95C1626.82 -208.36 1573.33 -150.51 1506.92 -92.1201C1406.75 -4.04005 1271.68 66.2699 1108.99 117.72C948.313 168.53 816.833 227.88 712.033 303.67C402.413 527.57 345.783 832.15 350.753 937.6" stroke="url('#logo-gradient')" stroke-miterlimit="10"/>
        <path d="M1896.88 -566.56C1884.9 -568.9 1828.04 -426.83 1679.26 -246.96C1632.93 -190.95 1580.35 -133.71 1515.01 -75.85C1416.23 11.61 1282.69 80.98 1122.06 131.59C963.333 181.6 833.303 239.78 729.583 314.58C423.913 535.03 367.573 835.83 371.933 940.62" stroke="url('#logo-gradient')" stroke-miterlimit="10"/>
        <path d="M1900.16 -544.04C1887.88 -546.44 1831.16 -406.7 1684.71 -228.96C1639.04 -173.53 1587.36 -116.89 1523.1 -59.58C1425.72 27.27 1293.69 95.68 1135.13 145.45C978.363 194.65 849.773 251.67 747.143 325.48C445.413 542.49 389.373 839.5 393.123 943.63" stroke="url('#logo-gradient')" stroke-miterlimit="10"/>
        <path d="M1903.43 -521.53C1890.85 -523.99 1834.26 -386.58 1690.15 -210.96C1645.14 -156.11 1594.37 -100.08 1531.18 -43.3C1435.19 42.94 1304.69 110.4 1148.19 159.33C993.383 207.73 866.233 263.57 764.693 336.39C466.913 549.95 411.153 843.18 414.303 946.65" stroke="url('#logo-gradient')" stroke-miterlimit="10"/>
        <path d="M1906.71 -499.02C1893.83 -501.54 1837.38 -366.46 1695.6 -192.97C1651.25 -138.7 1601.39 -83.27 1539.27 -27.04C1444.68 58.58 1315.69 125.1 1161.26 173.18C1008.41 220.77 882.693 275.45 782.253 347.28C488.423 557.4 432.953 846.84 435.493 949.65" stroke="url('#logo-gradient')" stroke-miterlimit="10"/>
        <path d="M1909.98 -476.51C1896.8 -479.09 1840.48 -346.34 1701.05 -174.98C1657.36 -121.28 1608.41 -66.46 1547.36 -10.77C1454.17 74.24 1326.7 139.8 1174.32 187.04C1023.42 233.83 899.153 287.34 799.793 358.18C509.923 564.85 454.733 850.52 456.653 952.66" stroke="url('#logo-gradient')" stroke-miterlimit="10"/>
        <path d="M1913.25 -454C1899.77 -456.64 1843.59 -326.22 1706.49 -156.99C1663.46 -103.87 1615.42 -49.66 1555.44 5.49005C1463.64 89.8901 1337.69 154.5 1187.38 200.9C1038.44 246.88 915.613 299.23 817.343 369.08C531.423 572.31 476.523 854.19 477.833 955.68" stroke="url('#logo-gradient')" stroke-miterlimit="10"/>
        <path d="M1916.53 -431.49C1902.75 -434.19 1846.71 -306.09 1711.94 -139C1669.57 -86.46 1622.44 -32.85 1563.53 21.76C1473.13 105.55 1348.7 169.2 1200.45 214.76C1053.47 259.93 932.083 311.12 834.903 379.98C552.933 579.77 498.313 857.86 499.023 958.69" stroke="url('#logo-gradient')" stroke-miterlimit="10"/>
        <path d="M1919.8 -408.98C1905.72 -411.73 1849.82 -285.97 1717.38 -121C1675.67 -69.0399 1629.45 -16.0199 1571.61 38.0301C1482.6 121.22 1359.69 183.91 1213.51 228.63C1068.49 273 948.543 323.02 852.453 390.89C574.443 587.24 520.103 861.54 520.203 961.71" stroke="url('#logo-gradient')" stroke-miterlimit="10"/>
        <path d="M1923.07 -386.47C1908.69 -389.28 1852.93 -265.84 1722.83 -103.01C1681.78 -51.63 1636.48 0.790081 1579.7 54.3001C1492.09 136.88 1370.7 198.61 1226.58 242.49C1083.51 286.05 965.013 334.91 870.003 401.79C595.953 594.7 541.893 865.21 541.383 964.72" stroke="url('#logo-gradient')" stroke-miterlimit="10"/>
        <path d="M1926.35 -363.95C1911.67 -366.82 1856.05 -245.71 1728.28 -85.01C1687.89 -34.2 1643.5 17.61 1587.79 70.58C1501.57 152.55 1381.7 213.33 1239.65 256.37C1098.54 299.13 981.483 346.82 887.563 412.71C617.473 602.18 563.693 868.9 562.573 967.75" stroke="url('#logo-gradient')" stroke-miterlimit="10"/>
        <path d="M1929.62 -341.44C1914.64 -344.37 1859.16 -225.58 1733.72 -67.0201C1693.99 -16.7901 1650.51 34.4299 1595.87 86.8399C1511.05 168.21 1392.7 228.02 1252.71 270.22C1113.56 312.17 997.943 358.7 905.113 423.6C638.983 609.64 585.473 872.57 583.753 970.75" stroke="url('#logo-gradient')" stroke-miterlimit="10"/>
        <path d="M1932.9 -318.93C1917.63 -321.92 1862.28 -205.45 1739.17 -49.02C1700.1 0.629982 1657.53 51.25 1603.96 103.12C1520.53 183.89 1403.7 242.74 1265.78 284.1C1128.58 325.24 1014.42 370.61 922.673 434.52C660.503 617.13 607.273 876.26 604.943 973.78" stroke="url('#logo-gradient')" stroke-miterlimit="10"/>
        <path d="M1936.17 -296.42C1920.6 -299.47 1865.39 -185.32 1744.62 -31.03C1706.21 18.04 1664.56 68.07 1612.05 119.38C1530.02 199.55 1414.71 257.43 1278.85 297.95C1143.61 338.29 1030.89 382.49 940.223 445.41C682.013 624.58 629.063 879.92 626.123 976.78" stroke="url('#logo-gradient')" stroke-miterlimit="10"/>
        <path d="M1939.44 -273.91C1923.57 -277.02 1868.5 -165.19 1750.06 -13.0401C1712.31 35.4599 1671.57 84.89 1620.13 135.65C1539.5 215.22 1425.7 272.14 1291.91 311.82C1158.63 351.35 1047.35 394.4 957.773 456.32C703.533 632.06 650.853 883.6 647.293 979.8" stroke="url('#logo-gradient')" stroke-miterlimit="10"/>
        <path d="M1942.72 -251.4C1926.55 -254.56 1871.62 -145.06 1755.51 4.94998C1718.42 52.87 1678.59 101.71 1628.22 151.91C1548.98 230.89 1436.71 286.83 1304.98 325.67C1173.66 364.39 1063.82 406.28 975.333 467.21C725.053 639.52 672.643 887.26 668.483 982.8" stroke="url('#logo-gradient')" stroke-miterlimit="10"/>
        <path d="M1945.99 -228.89C1929.52 -232.11 1874.74 -124.93 1760.95 22.9399C1724.52 70.2799 1685.61 118.53 1636.3 168.18C1558.46 246.57 1447.7 301.54 1318.04 339.54C1188.67 377.45 1080.29 418.18 992.883 478.11C746.573 647 694.433 890.94 689.663 985.81" stroke="url('#logo-gradient')" stroke-miterlimit="10"/>
        <path d="M1949.26 -206.38C1932.49 -209.66 1877.85 -104.79 1766.4 40.94C1730.63 87.71 1692.63 135.36 1644.39 184.45C1567.95 262.24 1458.71 316.24 1331.11 353.4C1203.7 390.51 1096.76 430.07 1010.43 489.01C768.093 654.47 716.223 894.61 710.843 988.82" stroke="url('#logo-gradient')" stroke-miterlimit="10"/>
        <path d="M1952.54 -183.87C1935.47 -187.21 1880.98 -84.6599 1771.85 58.9301C1736.74 105.12 1699.66 152.19 1652.49 200.72C1577.44 277.92 1469.72 330.95 1344.19 367.27C1218.74 403.57 1113.24 441.97 1028 499.92C789.643 661.96 738.033 898.29 732.043 991.85" stroke="url('#logo-gradient')" stroke-miterlimit="10"/>
        <path d="M1955.81 -161.35C1938.44 -164.75 1884.09 -64.51 1777.29 76.93C1742.84 122.55 1706.68 169.03 1660.57 217C1586.92 293.62 1480.71 345.66 1357.25 381.14C1233.75 416.63 1129.71 453.88 1045.55 510.83C811.163 669.45 759.813 901.97 753.223 994.87" stroke="url('#logo-gradient')" stroke-miterlimit="10"/>
        <path d="M1959.08 -138.84C1941.41 -142.3 1887.21 -44.38 1782.74 94.92C1748.96 139.96 1713.7 185.85 1668.66 233.26C1596.41 309.29 1491.72 360.35 1370.32 395C1248.78 429.69 1146.18 465.77 1063.1 521.73C832.693 676.93 781.603 905.64 774.403 997.88" stroke="url('#logo-gradient')" stroke-miterlimit="10"/>
        <path d="M1962.36 -116.33C1944.39 -119.85 1890.34 -24.24 1788.19 112.91C1755.07 157.38 1720.73 202.68 1676.75 249.53C1605.9 324.98 1502.72 375.06 1383.39 408.86C1263.8 442.74 1162.66 477.66 1080.66 532.63C854.233 684.42 803.403 909.32 795.593 1000.89" stroke="url('#logo-gradient')" stroke-miterlimit="10"/>
        <path d="M1965.63 -93.82C1947.36 -97.4 1893.46 -4.10001 1793.63 130.91C1761.17 174.81 1727.75 219.53 1684.83 265.8C1615.38 340.67 1513.72 389.76 1396.45 422.73C1278.82 455.8 1179.13 489.57 1098.21 543.54C875.763 691.91 825.183 913 816.763 1003.91" stroke="url('#logo-gradient')" stroke-miterlimit="10"/>
        <path d="M1968.91 -71.3101C1950.34 -74.9401 1896.59 16.05 1799.08 148.9C1767.28 192.22 1734.78 236.36 1692.92 282.07C1624.87 356.36 1524.72 404.46 1409.52 436.59C1293.85 468.85 1195.6 501.46 1115.77 554.44C897.303 699.4 846.983 916.67 837.953 1006.92" stroke="url('#logo-gradient')" stroke-miterlimit="10"/>
        <path d="M1972.18 -48.8001C1953.31 -52.4901 1899.71 36.19 1804.53 166.89C1773.4 209.64 1741.82 253.2 1701.01 298.33C1634.36 372.05 1535.72 419.16 1422.59 450.45C1308.87 481.9 1212.08 513.36 1133.32 565.34C918.843 706.89 868.773 920.34 859.133 1009.93" stroke="url('#logo-gradient')" stroke-miterlimit="10"/>
        <path d="M1975.45 -26.29C1956.28 -30.04 1902.84 56.34 1809.97 184.88C1779.5 227.06 1748.84 270.03 1709.09 314.6C1643.85 387.75 1546.72 433.86 1435.65 464.31C1323.89 494.95 1228.55 525.26 1150.87 576.24C940.383 714.39 890.563 924.01 880.313 1012.94" stroke="url('#logo-gradient')" stroke-miterlimit="10"/>
        <path d="M1978.73 -3.78007C1959.26 -7.59007 1905.97 76.48 1815.42 202.87C1785.61 244.48 1755.87 286.87 1717.18 330.87C1653.34 403.45 1557.72 448.56 1448.72 478.18C1338.91 508.01 1245.03 537.16 1168.43 587.15C961.933 721.89 912.353 927.69 901.503 1015.96" stroke="url('#logo-gradient')" stroke-miterlimit="10"/>
        <path d="M1982 18.7399C1962.23 14.8699 1909.1 96.64 1820.86 220.88C1791.72 261.91 1762.9 303.74 1725.26 347.15C1662.83 419.16 1568.71 463.27 1461.78 492.05C1353.93 521.08 1261.5 549.07 1185.98 598.06C983.483 729.41 934.143 931.38 922.683 1018.98" stroke="url('#logo-gradient')" stroke-miterlimit="10"/>
        <path d="M1985.27 41.25C1965.2 37.32 1912.23 116.79 1826.31 238.87C1797.83 279.33 1769.94 320.58 1733.35 363.42C1672.32 434.87 1579.72 477.98 1474.85 505.92C1368.96 534.14 1277.98 560.98 1203.53 608.97C1005.02 736.92 955.933 935.06 943.863 1022" stroke="url('#logo-gradient')" stroke-miterlimit="10"/>
        <path d="M1988.55 63.76C1968.18 59.77 1915.37 136.95 1831.76 256.86C1803.94 296.75 1776.97 337.43 1741.44 379.68C1681.82 450.57 1590.72 492.67 1487.92 519.77C1383.98 547.18 1294.46 572.87 1221.09 619.85C1026.59 744.41 977.733 938.71 965.053 1024.99" stroke="url('#logo-gradient')" stroke-miterlimit="10"/>
        <path d="M1991.82 86.27C1971.15 82.23 1918.5 157.1 1837.2 274.85C1810.05 314.17 1784.01 354.28 1749.52 395.95C1691.31 466.29 1601.71 507.37 1500.98 533.64C1399 560.24 1310.94 584.78 1238.64 630.76C1048.14 751.93 999.513 942.39 986.223 1028.01" stroke="url('#logo-gradient')" stroke-miterlimit="10"/>
        <path d="M1995.1 108.78C1974.13 104.68 1921.64 177.26 1842.65 292.84C1816.17 331.6 1791.05 371.13 1757.61 412.21C1700.82 481.99 1612.71 522.06 1514.05 547.49C1414.02 573.28 1327.42 596.67 1256.2 641.65C1069.71 759.43 1021.31 946.05 1007.41 1031.02" stroke="url('#logo-gradient')" stroke-miterlimit="10"/>
        <path d="M1998.37 131.29C1977.11 127.13 1924.78 197.42 1848.1 310.84C1822.28 349.03 1798.09 387.99 1765.7 428.49C1710.32 497.73 1623.72 536.77 1527.12 561.37C1429.05 586.34 1343.91 608.59 1273.75 652.57C1091.27 766.97 1043.1 949.75 1028.59 1034.05" stroke="url('#logo-gradient')" stroke-miterlimit="10"/>
        <path d="M2001.64 153.8C1980.08 149.58 1927.92 217.58 1853.54 328.83C1828.39 366.45 1805.13 404.85 1773.78 444.75C1719.82 513.44 1634.71 551.46 1540.18 575.22C1444.06 599.38 1360.38 620.48 1291.3 663.46C1112.83 774.49 1064.89 953.41 1049.77 1037.05" stroke="url('#logo-gradient')" stroke-miterlimit="10"/>
        <path d="M2004.92 176.31C1983.06 172.03 1931.07 237.74 1858.99 346.82C1834.51 383.87 1812.18 421.71 1781.87 461.02C1729.33 529.17 1645.71 566.16 1553.25 589.09C1459.08 612.44 1376.87 632.4 1308.86 674.37C1134.41 782.03 1086.68 957.09 1070.96 1040.07" stroke="url('#logo-gradient')" stroke-miterlimit="10"/>
        <path d="M2008.19 198.82C1986.03 194.48 1934.21 257.91 1864.43 364.81C1840.61 401.3 1819.22 438.57 1789.95 477.29C1738.84 544.91 1656.7 580.86 1566.31 602.95C1474.1 625.49 1393.35 644.3 1326.41 685.27C1155.99 789.56 1108.47 960.76 1092.14 1043.08" stroke="url('#logo-gradient')" stroke-miterlimit="10"/>
        <path d="M2011.46 221.34C1989 216.94 1937.36 278.09 1869.88 382.81C1846.73 418.73 1826.27 455.45 1798.04 493.56C1748.36 560.65 1667.7 595.55 1579.38 616.82C1489.12 638.55 1409.84 656.22 1343.96 696.18C1177.56 797.11 1130.26 964.44 1113.32 1046.1" stroke="url('#logo-gradient')" stroke-miterlimit="10"/>
        <path d="M2014.74 243.85C1991.98 239.4 1940.52 298.26 1875.33 400.81C1852.85 436.17 1833.33 472.32 1806.13 509.84C1757.88 576.4 1678.71 610.26 1592.45 630.69C1504.15 651.6 1426.33 668.14 1361.52 707.09C1199.15 804.66 1152.06 968.13 1134.51 1049.12" stroke="url('#logo-gradient')" stroke-miterlimit="10"/>
        <path d="M2018.01 266.36C1994.95 261.85 1943.67 318.44 1880.77 418.8C1858.96 453.59 1840.38 489.2 1814.21 526.1C1767.4 592.14 1689.7 624.95 1605.5 644.55C1519.15 664.65 1442.8 680.05 1379.06 717.99C1220.73 812.22 1173.83 971.8 1155.67 1052.13" stroke="url('#logo-gradient')" stroke-miterlimit="10"/>
        <path d="M2021.28 288.87C1997.92 284.3 1946.83 338.62 1886.21 436.79C1865.08 471.02 1847.43 506.07 1822.29 542.37C1776.92 607.89 1700.69 639.65 1618.56 658.41C1534.16 677.7 1459.29 691.96 1396.6 728.89C1242.31 819.77 1195.61 975.47 1176.84 1055.14" stroke="url('#logo-gradient')" stroke-miterlimit="10"/>
        <path d="M2024.56 311.38C2000.9 306.75 1950 358.8 1891.67 454.78C1871.21 488.45 1854.51 522.95 1830.39 558.63C1786.47 623.64 1711.7 654.33 1631.64 672.27C1549.2 690.74 1475.8 703.88 1414.17 739.79C1263.93 827.34 1217.42 979.14 1198.04 1058.15" stroke="url('#logo-gradient')" stroke-miterlimit="10"/>
        <path d="M2027.83 333.89C2003.87 329.2 1953.16 378.98 1897.11 472.77C1877.32 505.88 1861.57 539.83 1838.47 574.9C1796 639.4 1722.69 669.03 1644.7 686.13C1564.21 703.79 1492.28 715.79 1431.72 750.68C1285.53 834.9 1239.21 982.8 1219.22 1061.15" stroke="url('#logo-gradient')" stroke-miterlimit="10"/>
        <path d="M2031.11 356.4C2006.85 351.65 1956.34 399.17 1902.56 490.77C1883.45 523.32 1868.64 556.72 1846.57 591.17C1805.56 655.17 1733.7 683.72 1657.78 700C1579.24 716.84 1508.79 727.72 1449.29 761.59C1307.16 842.49 1261.01 986.48 1240.42 1064.17" stroke="url('#logo-gradient')" stroke-miterlimit="10"/>
        <path d="M2034.38 378.91C2009.82 374.1 1959.52 419.36 1908.01 508.76C1889.58 540.75 1875.72 573.61 1854.66 607.44C1815.12 670.95 1744.7 698.41 1670.85 713.86C1594.26 729.88 1525.3 739.65 1466.84 772.49C1328.77 850.08 1282.8 990.16 1261.6 1067.19" stroke="url('#logo-gradient')" stroke-miterlimit="10"/>
        <path d="M2037.65 401.43C2012.79 396.57 1962.7 439.57 1913.45 526.76C1895.7 558.19 1882.79 590.51 1862.74 623.72C1824.68 686.74 1755.69 713.12 1683.91 727.74C1609.28 742.94 1541.79 751.59 1484.39 783.41C1350.39 857.7 1304.59 993.85 1282.78 1070.22" stroke="url('#logo-gradient')" stroke-miterlimit="10"/>
        <path d="M2040.93 423.94C2015.77 419.02 1965.89 459.77 1918.9 544.75C1901.83 575.63 1889.88 607.4 1870.83 639.98C1834.26 702.51 1766.69 727.8 1696.98 741.59C1624.3 755.97 1558.3 763.51 1501.95 794.3C1372.02 865.29 1326.38 997.51 1303.97 1073.22" stroke="url('#logo-gradient')" stroke-miterlimit="10"/>
        <path d="M2044.2 446.45C2018.74 441.47 1969.08 479.97 1924.34 562.74C1907.95 593.07 1896.97 624.3 1878.91 656.25C1843.84 718.31 1777.68 742.49 1710.04 755.46C1639.31 769.02 1574.8 775.46 1519.5 805.21C1393.65 872.92 1348.17 1001.19 1325.14 1076.24" stroke="url('#logo-gradient')" stroke-miterlimit="10"/>
        <path d="M2047.47 468.96C2021.71 463.92 1972.28 500.18 1929.79 580.74C1914.08 610.51 1904.07 641.2 1887 672.52C1853.44 734.11 1788.68 757.18 1723.11 769.32C1654.33 782.06 1591.31 787.4 1537.05 816.11C1415.29 880.55 1369.96 1004.86 1346.32 1079.25" stroke="url('#logo-gradient')" stroke-miterlimit="10"/>
        <path d="M2050.75 491.47C2024.69 486.37 1975.5 520.39 1935.24 598.73C1920.22 627.95 1911.17 658.11 1895.09 688.79C1863.05 749.91 1799.68 771.86 1736.18 783.19C1669.35 795.11 1607.83 799.35 1554.61 827.02C1436.95 888.2 1391.76 1008.55 1367.51 1082.27" stroke="url('#logo-gradient')" stroke-miterlimit="10"/>
        <path d="M2054.02 513.98C2027.66 508.82 1978.71 540.6 1940.68 616.72C1926.36 645.39 1918.27 675.01 1903.17 705.05C1872.67 765.71 1810.66 786.54 1749.24 797.04C1684.36 808.13 1624.33 811.29 1572.16 837.91C1458.6 895.85 1413.54 1012.21 1388.69 1085.27" stroke="url('#logo-gradient')" stroke-miterlimit="10"/>
        <path d="M2057.3 536.49C2030.64 531.27 1981.94 560.82 1946.13 634.71C1932.5 662.83 1925.39 691.92 1911.26 721.32C1882.31 781.53 1821.66 801.22 1762.31 810.91C1699.38 821.18 1640.86 823.26 1589.72 848.82C1480.27 903.53 1435.34 1015.89 1409.88 1088.29" stroke="url('#logo-gradient')" stroke-miterlimit="10"/>
        <path d="M2060.57 559C2033.61 553.73 1985.18 581.05 1951.58 652.7C1938.65 680.28 1932.52 708.82 1919.35 737.59C1891.98 797.35 1832.66 815.91 1775.38 824.77C1714.4 834.21 1657.38 835.22 1607.27 859.72C1501.94 911.22 1457.13 1019.56 1431.06 1091.3" stroke="url('#logo-gradient')" stroke-miterlimit="10"/>
        <path d="M2063.84 581.51C2036.59 576.18 1988.42 601.27 1957.02 670.7C1944.79 697.73 1939.65 725.74 1927.43 753.86C1901.65 813.17 1843.65 830.59 1788.44 838.64C1729.41 847.25 1673.9 847.2 1624.82 870.63C1523.61 918.93 1478.92 1023.24 1452.24 1094.32" stroke="url('#logo-gradient')" stroke-miterlimit="10"/>
        <path d="M2067.12 604.03C2039.57 598.64 1991.69 621.52 1962.47 688.7C1950.95 715.19 1946.8 742.66 1935.52 770.14C1911.36 829.01 1854.64 845.28 1801.51 852.51C1744.43 860.28 1690.43 859.2 1642.38 881.54C1545.3 926.66 1500.71 1026.92 1473.43 1097.34" stroke="url('#logo-gradient')" stroke-miterlimit="10"/>
        <path d="M2070.39 626.54C2042.54 621.09 1994.96 641.75 1967.91 706.69C1957.11 732.64 1953.94 759.57 1943.6 786.4C1921.08 844.83 1865.63 859.94 1814.57 866.37C1759.44 873.31 1706.96 871.19 1659.93 892.43C1566.99 934.4 1522.5 1030.59 1494.6 1100.34" stroke="url('#logo-gradient')" stroke-miterlimit="10"/>
        <path d="M2073.66 649.05C2045.51 643.54 1998.24 661.99 1973.36 724.68C1963.28 750.09 1961.1 776.48 1951.69 802.67C1930.84 860.67 1876.63 874.61 1827.64 880.23C1774.46 886.33 1723.51 883.21 1677.48 903.33C1588.69 942.16 1544.29 1034.26 1515.78 1103.35" stroke="url('#logo-gradient')" stroke-miterlimit="10"/>
        <path d="M2076.94 671.56C2048.49 665.99 2001.55 682.23 1978.81 742.67C1969.45 767.54 1968.28 793.39 1959.78 818.93C1940.62 876.49 1887.62 889.27 1840.71 894.09C1789.48 899.34 1740.06 895.23 1695.04 914.23C1610.4 949.96 1566.09 1037.93 1536.97 1106.37" stroke="url('#logo-gradient')" stroke-miterlimit="10"/>
    </g>
    <path d="M0 0H1920V670H0V0Z" fill="url(#paint0_radial)" style="mix-blend-mode:multiply"/>
    <defs>
        <radialGradient id="paint0_radial" cx="0" cy="0" r="1" gradientUnits="userSpaceOnUse" gradientTransform="translate(960 335) rotate(90) scale(524 657)">
            <stop/>
            <stop offset="1" stop-color="#1E1F21" stop-opacity="0"/>
        </radialGradient>
    </defs>
</svg>
